# xmcd
#
# Track frame offsets: 
#        150
#        14826
#        29683
#        59165
#        87760
#        105008
#        131889
#        157356
#        173933
#        196045
#        215852
#        240959
#        258433
#
# Disc length: 3700 seconds
#
# Revision: 1
# Processed by: cddbd v1.5.2PL0 Copyright (c) Steve Scherf et al.
# Submitted via: ExactAudioCopy v0.90b4
#
DISCID=bd0e720d
DTITLE=Various Artist - Gare Du Nord - Jazz In The City
DYEAR=2007
DGENRE=Jazz
TTITLE0=Duke Pearson - The Phantom
TTITLE1=Pieces Of A Dream - Warm Weather
TTITLE2=Bobbi Humphrey - Uno Esta
TTITLE3=Gare Du Nord - You're My Medicine (Urban Jazz Rebels Mix)
TTITLE4=Brother Jack McDuff - Oblighetto
TTITLE5=Donald Byrd - Think Twice
TTITLE6=Donald Byrd - Cristo Rendentor
TTITLE7=Gare Du Nord - Beautiful Day (Urban Jazz Rebels Mix)
TTITLE8=Gene Harris - Listen Here
TTITLE9=Bobby Hutcherson - Montara
TTITLE10=Bobbi Humphrey - Please Set Me At Ease
TTITLE11=Ronnie Foster - Mystic Brew
TTITLE12=Andrew Hill - Illusion
EXTD=YEAR: 2007
EXTT0=
EXTT1=
EXTT2=
EXTT3=
EXTT4=
EXTT5=
EXTT6=
EXTT7=
EXTT8=
EXTT9=
EXTT10=
EXTT11=
EXTT12=
PLAYORDER=
